<?xml version="1.0" standalone="no"?>
<!DOCTYPE svg PUBLIC "-//W3C//DTD SVG 20010904//EN"
 "http://www.w3.org/TR/2001/REC-SVG-20010904/DTD/svg10.dtd">
<svg version="1.0" xmlns="http://www.w3.org/2000/svg"
 width="256.000000pt" height="256.000000pt" viewBox="0 0 256.000000 256.000000"
 preserveAspectRatio="xMidYMid meet">
<metadata>
Created by potrace 1.14, written by Peter Selinger 2001-2017
</metadata>
<g transform="translate(0.000000,256.000000) scale(0.100000,-0.100000)"
fill="#000000" stroke="none">
<path d="M0 1280 l0 -1280 1280 0 1280 0 0 1280 0 1280 -1280 0 -1280 0 0
-1280z m1615 603 c60 -32 73 -50 206 -278 130 -224 149 -266 149 -325 0 -59
-19 -100 -152 -330 -134 -230 -166 -268 -249 -290 -26 -7 -138 -10 -312 -8
-256 3 -274 4 -312 25 -22 11 -50 32 -62 45 -30 32 -267 445 -283 492 -18 55
-8 125 28 192 93 179 242 421 274 447 67 54 87 57 393 54 265 -2 282 -3 320
-24z"/>
<path d="M1202 1502 c-122 -44 -183 -163 -148 -287 38 -129 162 -198 291 -161
129 38 198 162 161 291 -39 133 -174 203 -304 157z"/>
</g>
</svg>
